<?xml version="1.0" standalone="no"?>
<!DOCTYPE svg PUBLIC "-//W3C//DTD SVG 20010904//EN"
 "http://www.w3.org/TR/2001/REC-SVG-20010904/DTD/svg10.dtd">
<svg version="1.0" xmlns="http://www.w3.org/2000/svg"
 width="300.000000pt" height="300.000000pt" viewBox="0 0 300.000000 300.000000"
 preserveAspectRatio="xMidYMid meet">

<g transform="translate(0.000000,300.000000) scale(0.100000,-0.100000)"
fill="#000000" stroke="none">
<path d="M335 2530 c-88 -23 -161 -83 -194 -160 -21 -50 -21 -51 -19 -882 3
-832 3 -833 25 -873 27 -50 75 -96 133 -126 l45 -24 1175 0 1175 0 45 24 c58
30 106 76 133 126 l22 40 0 845 0 845 -22 41 c-26 48 -88 107 -140 131 -36 17
-110 18 -1193 20 -635 0 -1168 -2 -1185 -7z m2331 -146 c18 -9 43 -31 54 -49
20 -32 20 -48 20 -835 0 -787 0 -803 -20 -835 -43 -69 34 -65 -1220 -65 -1254
0 -1177 -4 -1220 65 -20 32 -20 48 -20 836 0 767 1 805 19 835 41 68 -36 64
1219 64 1021 0 1137 -2 1168 -16z"/>
<path d="M990 2041 c-93 -30 -178 -105 -219 -191 -21 -45 -26 -70 -26 -135 0
-93 19 -153 73 -223 21 -28 30 -48 23 -50 -31 -10 -135 -88 -167 -125 -73 -85
-125 -202 -138 -309 l-7 -58 69 0 70 0 6 54 c14 109 103 243 200 300 126 74
296 74 422 0 97 -57 186 -191 200 -300 l6 -54 69 0 c77 0 74 -6 58 90 -23 144
-133 306 -254 375 -27 16 -51 30 -53 31 -2 1 12 22 31 47 53 69 72 129 72 222
0 96 -28 166 -93 232 -67 68 -132 96 -232 99 -47 2 -96 0 -110 -5z m189 -151
c150 -76 148 -290 -2 -365 -84 -42 -173 -27 -241 41 -96 97 -67 261 59 327 43
23 137 22 184 -3z"/>
<path d="M1900 1773 c-32 -12 -50 -37 -50 -69 0 -57 21 -64 206 -64 l163 0 20
26 c26 33 26 55 2 85 -19 23 -25 24 -173 26 -84 1 -160 -1 -168 -4z"/>
<path d="M1870 1410 c-11 -11 -20 -32 -20 -47 1 -66 25 -73 245 -73 184 0 186
0 210 25 31 30 32 65 2 93 -22 21 -32 22 -220 22 -184 0 -198 -1 -217 -20z"/>
<path d="M1900 1083 c-50 -18 -68 -84 -32 -117 17 -15 48 -16 292 -14 l273 3
20 27 c17 23 18 31 8 57 -8 18 -24 34 -43 40 -32 11 -489 14 -518 4z"/>
</g>
</svg>
