<?xml version="1.0" standalone="no"?>
<!DOCTYPE svg PUBLIC "-//W3C//DTD SVG 20010904//EN"
 "http://www.w3.org/TR/2001/REC-SVG-20010904/DTD/svg10.dtd">
<svg version="1.0" xmlns="http://www.w3.org/2000/svg"
 width="708.000000pt" height="447.000000pt" viewBox="0 0 708.000000 447.000000"
 preserveAspectRatio="xMidYMid meet">

<g transform="translate(0.000000,447.000000) scale(0.100000,-0.100000)"
fill="#006DDA " stroke="none">
<path d="M280 4421 c-89 -18 -175 -86 -214 -170 l-21 -46 0 -1970 0 -1970 22
-41 c47 -88 104 -136 197 -167 46 -16 293 -17 3280 -17 2996 0 3234 1 3276 17
66 24 120 62 157 111 67 89 63 -55 63 2067 0 2119 4 1971 -63 2071 -25 38 -48
57 -101 84 l-69 35 -3246 1 c-1785 1 -3262 -1 -3281 -5z m4250 -548 l1 -118
22 26 c12 14 33 40 47 58 24 31 28 32 84 29 l59 -3 -51 -64 c-29 -35 -52 -68
-52 -73 0 -5 22 -41 48 -81 27 -40 52 -78 56 -84 5 -10 -8 -13 -56 -13 l-63 1
-39 62 c-34 54 -40 59 -47 42 -4 -11 -8 -39 -8 -62 l-1 -43 -50 0 -50 0 0 220
0 220 50 0 50 0 0 -117z m-905 83 c57 -24 72 -83 35 -143 l-20 -33 24 -15 c46
-31 58 -88 28 -144 -31 -58 -69 -71 -209 -71 l-123 0 0 210 0 210 115 0 c77 0
127 -5 150 -14z m1500 -100 l60 -109 3 111 3 112 49 0 50 0 0 -210 0 -210 -54
0 -55 0 -73 133 -73 132 -3 -132 -3 -133 -54 0 -55 0 0 210 0 211 72 -3 72 -3
61 -109z m-1183 14 c68 -19 78 -44 78 -191 l0 -129 -49 0 c-27 0 -51 5 -53 10
-2 7 -20 3 -48 -9 -27 -12 -56 -17 -73 -14 -38 8 -77 57 -77 98 0 74 42 109
145 121 54 7 55 7 38 27 -15 16 -27 18 -73 14 -30 -3 -63 -8 -72 -12 -15 -6
-18 -2 -18 26 0 43 9 56 40 62 47 8 125 7 162 -3z m400 -19 l33 -29 3 -136 4
-136 -56 0 -56 0 0 114 c0 104 -2 115 -19 121 -11 3 -31 3 -45 -1 l-26 -6 0
-114 0 -114 -55 0 -55 0 0 160 0 160 54 0 c32 0 56 -5 58 -11 3 -8 13 -7 33 4
47 25 90 21 127 -12z m1211 18 c64 -17 77 -51 77 -196 l0 -123 -50 0 c-30 0
-50 4 -50 11 0 7 -7 8 -17 4 -65 -28 -88 -32 -115 -23 -42 15 -68 54 -68 103
0 36 5 48 31 69 33 28 48 33 123 44 48 7 49 7 31 26 -17 16 -29 18 -93 12
l-73 -6 3 38 c3 34 6 38 38 43 57 10 123 10 163 -2z m384 -13 l29 -24 39 24
c50 30 86 30 120 2 34 -30 44 -79 45 -205 l0 -103 -55 0 -55 0 0 104 c0 117
-4 136 -30 136 -48 0 -50 -6 -50 -126 l0 -114 -55 0 -55 0 0 104 c0 117 -4
136 -30 136 -48 0 -50 -6 -50 -126 l0 -114 -55 0 -55 0 0 160 0 160 54 0 c32
0 56 -5 58 -11 3 -8 13 -7 33 4 43 23 79 21 112 -7z m502 6 c47 -23 69 -58 77
-119 l7 -53 -112 0 c-61 0 -111 -2 -111 -5 0 -2 5 -16 12 -29 19 -44 100 -52
165 -18 32 17 33 16 33 -33 0 -42 -1 -44 -37 -54 -59 -17 -143 -13 -189 8
-102 46 -119 197 -31 279 46 43 129 54 186 24z m-4672 -628 c53 -40 67 -79 72
-196 l3 -108 -48 -2 -49 -2 48 -3 48 -4 -3 -92 -3 -92 -160 -3 c-155 -2 -160
-2 -176 20 -17 21 -17 20 -6 -25 26 -117 -59 -216 -188 -217 -104 0 -163 52
-184 166 -9 44 -7 53 15 85 13 19 24 42 24 50 0 7 -6 3 -13 -11 -40 -75 -25
-70 -204 -70 l-161 0 -7 84 c-4 46 -6 139 -4 207 5 143 18 179 85 217 39 22
39 22 461 20 411 -3 422 -4 450 -24z m-659 -576 c7 -40 23 -79 43 -107 l30
-44 -28 7 c-15 4 -108 10 -205 13 l-178 5 0 88 c0 47 3 90 7 93 3 4 77 7 163
7 l156 0 12 -62z m595 52 l137 0 0 -89 0 -89 -167 -5 c-93 -3 -186 -9 -208
-13 l-40 -7 37 41 c20 22 38 53 41 68 3 16 8 46 12 67 5 34 9 38 28 33 12 -3
84 -6 160 -6z m-500 -216 l77 -6 0 -55 0 -54 -204 3 c-232 3 -239 6 -285 88
l-24 42 179 -6 c99 -3 214 -9 257 -12z m627 6 c0 -24 -32 -70 -62 -92 -31 -22
-42 -23 -230 -26 -186 -3 -198 -2 -198 15 0 10 -3 35 -6 56 l-7 37 79 1 c44 0
102 4 129 9 79 12 295 12 295 0z m3650 -577 c0 -102 3 -106 66 -83 27 11 27
11 20 85 -4 41 -3 75 1 75 26 -1 34 -21 33 -81 -1 -35 2 -74 5 -85 4 -12 2
-25 -4 -28 -6 -4 -11 -32 -11 -62 0 -34 -4 -53 -10 -49 -5 3 -10 24 -10 45 0
65 -5 70 -70 70 l-58 0 -4 75 c-2 42 -2 94 0 115 4 35 6 38 23 27 16 -10 19
-24 19 -104z m-4640 -43 l0 -150 25 0 c24 0 25 3 25 56 0 47 3 55 18 52 14 -3
18 -16 20 -76 l3 -72 -100 0 c-90 0 -101 2 -111 20 -10 19 -8 20 35 20 44 0
45 1 45 33 0 17 3 76 7 130 l6 97 -32 0 c-18 0 -42 5 -54 12 l-22 12 25 7 c14
4 44 7 68 8 l42 1 0 -150z m371 129 c10 -16 12 -92 3 -138 l-6 -31 -79 0 -79
0 0 -55 0 -55 85 0 c78 0 85 -2 85 -20 0 -19 -7 -20 -105 -20 l-105 0 0 95 0
95 85 0 85 0 0 39 c0 22 3 46 6 55 5 14 -5 16 -79 16 -61 0 -88 4 -96 14 -17
20 7 25 107 22 59 -2 86 -7 93 -17z m295 8 c2 -2 7 -232 5 -289 l-1 -38 -93 0
c-87 0 -117 8 -117 32 0 4 38 8 84 8 l84 0 6 31 c14 73 11 79 -45 79 -51 0
-89 13 -89 30 0 6 29 10 64 10 70 0 76 6 76 78 l0 32 -71 0 c-39 0 -80 5 -92
12 -22 12 -21 12 8 20 26 6 174 3 181 -5z m152 -85 l3 -92 44 0 45 0 0 58 c0
31 3 68 7 80 10 39 23 4 23 -62 0 -41 5 -65 17 -78 13 -14 14 -21 5 -30 -7 -7
-12 -36 -12 -66 0 -46 -3 -53 -17 -50 -14 2 -19 15 -21 56 l-3 52 -65 0 -64 0
0 116 c0 105 2 115 18 112 14 -3 17 -17 20 -96z m732 78 c0 -18 -7 -20 -65
-20 l-65 0 0 -32 c0 -71 7 -78 70 -78 l59 0 6 -54 c4 -30 4 -73 0 -96 l-7 -42
-84 4 c-70 2 -87 7 -106 25 -29 30 -20 36 33 24 24 -6 63 -11 87 -11 l42 0 0
55 0 55 -65 0 -65 0 0 88 c0 49 3 92 7 95 3 4 39 7 80 7 66 0 73 -2 73 -20z
m132 12 c13 -5 15 -11 8 -22 -5 -8 -10 -48 -10 -87 l0 -73 85 0 85 0 0 -75 0
-76 -102 3 -103 3 -3 168 c-3 175 -2 176 40 159z m466 -62 c-3 -66 -6 -72 -46
-113 -38 -39 -42 -47 -42 -94 0 -52 -15 -77 -31 -52 -5 8 -9 42 -9 76 0 60 1
62 46 101 42 38 45 43 38 76 -6 36 -7 36 -58 36 -30 0 -61 -6 -73 -15 -20 -14
-23 -14 -33 4 -25 47 -18 51 101 51 l111 0 -4 -70z m211 64 l31 -6 0 -68 c0
-65 1 -68 26 -74 l27 -7 -6 -80 c-4 -44 -9 -84 -12 -90 -4 -5 -41 -9 -83 -9
-108 0 -122 11 -122 96 0 56 3 68 25 88 22 20 25 32 25 90 l0 66 29 0 c16 0
43 -3 60 -6z m671 -164 l0 -170 -35 0 c-34 0 -35 1 -29 28 4 15 10 36 14 47 3
11 5 41 2 68 l-4 47 -84 0 -84 0 0 75 0 75 110 0 110 0 0 -170z m240 118 c0
-70 8 -96 31 -103 16 -5 19 -16 19 -76 0 -105 -4 -109 -104 -109 -105 0 -111
6 -108 104 1 59 5 73 22 85 17 11 20 24 20 82 l0 69 60 0 60 0 0 -52z m338
-25 l3 -71 -41 -33 c-39 -32 -40 -34 -40 -96 0 -56 -2 -63 -20 -63 -18 0 -20
7 -20 75 0 75 0 75 40 111 34 31 40 42 40 76 l0 40 -67 -4 c-38 -3 -76 -8 -85
-13 -15 -6 -18 -2 -18 24 l0 32 103 -3 102 -3 3 -72z m136 71 c14 -5 14 -8 1
-27 -10 -14 -15 -45 -15 -89 l0 -68 74 0 c110 0 102 10 97 -122 l-1 -28 -94 0
c-63 0 -97 4 -104 13 -6 7 -11 79 -11 170 -1 149 0 157 18 157 11 0 26 -3 35
-6z m749 -14 c5 -18 0 -20 -59 -20 l-64 0 0 -55 0 -55 60 0 61 0 -3 -92 -3
-93 -69 -3 c-77 -3 -115 8 -135 40 -12 20 -12 20 26 12 21 -4 61 -8 88 -9 l50
0 3 44 c4 53 -5 61 -75 61 l-53 0 0 95 0 95 84 0 c75 0 84 -2 89 -20z m574 12
c12 -8 18 -247 7 -304 l-6 -28 -99 0 c-92 0 -99 1 -99 20 0 17 8 19 83 22 l82
3 3 30 c2 17 -1 42 -6 55 -8 22 -14 24 -57 21 -45 -2 -64 7 -65 32 0 4 26 7
59 7 58 0 59 1 65 31 15 78 15 79 -74 79 -69 0 -81 3 -90 20 -10 19 -8 20 87
20 54 0 103 -4 110 -8z m301 -72 c5 -121 6 -120 -88 -120 l-80 0 0 -50 0 -49
82 -3 c70 -3 83 -6 86 -20 3 -16 -7 -18 -102 -18 l-106 0 0 95 0 95 78 0 c42
0 83 4 90 8 8 6 10 22 6 55 l-7 46 -81 3 c-68 3 -81 6 -84 21 -3 16 5 17 100
15 l103 -3 3 -75z m-5405 -571 c22 -18 22 -18 -30 -19 -57 0 -61 3 -38 26 9 9
15 34 15 60 0 30 -5 46 -15 50 -22 9 -18 22 13 38 l27 14 3 -75 c2 -64 6 -78
25 -94z m128 161 c28 -16 24 -60 -12 -108 -28 -38 -29 -42 -11 -42 27 0 52
-10 52 -21 0 -5 -27 -9 -60 -9 -46 0 -60 3 -60 14 0 8 5 18 11 21 20 13 69 88
69 107 0 15 -8 18 -41 18 -36 0 -40 2 -29 15 14 17 53 20 81 5z m149 -6 c10
-11 11 -23 4 -42 -7 -19 -6 -35 4 -54 24 -50 -28 -99 -82 -78 -44 16 -40 30 8
30 44 0 46 1 46 30 0 26 -4 30 -27 30 l-28 1 28 20 c42 32 35 49 -20 49 -44 1
-47 2 -29 15 26 20 80 19 96 -1z m140 -33 c0 -28 5 -53 11 -57 8 -4 8 -9 0
-17 -6 -6 -11 -24 -11 -39 0 -18 -5 -28 -15 -28 -10 0 -15 10 -15 30 0 28 -2
30 -40 30 -50 0 -52 16 -7 67 66 77 77 79 77 14z m2100 -61 c22 -22 26 -51 10
-81 -12 -21 -41 -25 -73 -8 -16 9 -22 9 -25 0 -7 -21 -22 -11 -22 15 0 21 -3
24 -13 15 -10 -8 -17 -7 -25 1 -9 9 -12 5 -12 -17 0 -23 -3 -26 -12 -17 -13
13 -15 73 -3 92 5 8 13 6 26 -6 17 -15 19 -15 35 0 11 11 20 13 28 7 7 -6 18
-4 30 5 26 18 32 18 56 -6z m361 -1 c25 -18 30 -18 35 -5 4 12 20 16 56 16 30
0 47 -4 43 -10 -3 -5 -15 -10 -26 -10 -11 0 -17 -4 -14 -10 3 -5 15 -10 26
-10 11 0 17 -4 14 -10 -3 -5 -15 -10 -26 -10 -25 0 -20 -23 5 -28 21 -4 42 22
50 61 6 32 29 32 35 1 2 -10 10 -28 17 -39 13 -18 14 -16 14 23 0 42 0 42 36
42 l36 0 -7 -39 c-4 -24 -2 -42 4 -46 6 -3 11 -11 11 -16 0 -6 -13 -1 -30 11
-25 18 -30 19 -30 6 0 -18 -23 -21 -51 -6 -14 8 -25 7 -41 -5 -13 -8 -37 -15
-55 -15 -32 0 -33 1 -33 40 0 22 -4 40 -10 40 -13 0 -30 -34 -30 -61 0 -30
-13 -16 -25 28 -5 19 -13 34 -17 34 -7 -1 -25 -39 -43 -90 -7 -19 -45 15 -45
41 0 11 -7 18 -20 18 -15 0 -20 -7 -20 -26 0 -14 -4 -23 -10 -19 -5 3 -10 26
-10 51 0 24 -4 44 -8 44 -19 0 -32 -27 -32 -64 0 -51 -17 -36 -22 18 -5 59
-24 55 -34 -6 l-9 -53 -22 35 c-20 31 -23 32 -23 13 0 -13 -4 -23 -10 -23 -5
0 -10 20 -10 45 0 50 8 56 29 23 14 -22 14 -22 22 -2 6 18 17 21 73 23 61 2
66 0 66 -18 0 -14 6 -21 20 -21 14 0 20 7 20 21 0 11 5 17 10 14 6 -3 10 -26
10 -51 0 -57 14 -49 30 16 7 27 14 50 17 50 3 0 18 -9 34 -21z m-551 -274 c0
-69 4 -125 8 -125 18 0 32 26 32 62 0 27 4 38 15 38 12 0 15 -13 15 -60 l0
-60 -68 0 c-44 0 -75 5 -88 15 -18 13 -17 14 19 15 l37 0 0 54 c0 29 3 73 6
98 l6 45 -36 7 c-54 10 -48 36 9 36 l45 0 0 -125z m499 43 c-34 -69 -118 -192
-126 -185 -11 11 66 156 125 236 37 50 38 22 1 -51z m-1256 40 l14 -33 17 33
c10 19 19 32 22 29 6 -6 -28 -107 -36 -107 -9 0 -40 74 -40 95 0 24 9 17 23
-17z m112 22 c3 -6 -1 -13 -9 -16 -23 -9 -19 -26 4 -19 15 5 20 2 20 -12 0
-29 20 7 20 37 0 20 2 22 10 10 5 -8 10 -30 10 -47 0 -30 3 -33 31 -33 l30 0
-7 45 c-5 38 -4 45 10 45 13 0 16 -11 16 -55 l0 -55 -35 0 c-19 0 -55 7 -81
16 -42 14 -47 14 -65 -2 -18 -16 -18 -15 -10 12 24 78 40 100 56 74z m225 -10
c35 -35 18 -75 -37 -86 l-33 -6 0 56 c0 53 1 56 25 56 14 0 34 -9 45 -20z
m723 1 c2 -10 2 -41 -1 -70 l-5 -51 -63 0 -64 0 0 -45 0 -45 43 0 c23 0 53 -3
66 -7 23 -6 23 -7 5 -14 -10 -4 -47 -8 -81 -8 l-63 -1 0 75 0 75 65 0 65 0 0
43 0 42 -60 0 c-34 0 -65 6 -72 13 -9 9 6 12 74 12 75 0 86 -2 91 -19z m474
-112 c-4 -73 -9 -134 -11 -136 -2 -3 -13 0 -23 5 -15 9 -17 21 -14 81 l3 71
-66 0 -66 0 0 55 0 55 92 0 91 0 -6 -131z m233 49 c0 -46 -3 -106 -6 -134 -6
-45 -9 -51 -27 -46 -18 5 -19 11 -13 74 l6 68 -34 0 c-18 0 -48 3 -65 6 -30 6
-31 8 -31 60 l0 54 85 0 85 0 0 -82z m-1307 -23 c20 -8 37 -19 37 -24 0 -7
-100 -51 -116 -51 -2 0 -4 23 -4 51 0 57 2 58 83 24z m-413 -24 c0 -6 -4 -13
-10 -16 -5 -3 -10 -21 -10 -40 0 -19 -4 -37 -10 -40 -6 -4 -10 12 -10 39 0 37
-4 46 -17 47 -10 1 -4 5 12 9 43 11 45 11 45 1z m57 -31 c2 -3 13 6 23 20 l20
25 0 -57 c0 -63 -10 -74 -26 -30 l-11 27 -13 -27 c-20 -41 -30 -34 -30 20 0
54 9 72 23 45 6 -10 12 -20 14 -23z m132 22 c6 -11 6 -24 0 -35 -7 -11 -6 -24
1 -37 12 -23 3 -25 -24 -5 -17 13 -21 12 -32 -3 -12 -15 -13 -9 -14 41 0 57 0
57 30 57 18 0 33 -7 39 -18z m43 -29 c2 -26 8 -38 18 -38 10 0 16 12 18 38 2
20 7 37 13 37 11 0 12 -70 0 -88 -5 -8 -21 -12 -37 -10 -27 3 -29 6 -32 51 -4
55 15 65 20 10z m-1773 -404 c17 -6 31 -14 31 -17 0 -4 3 -17 6 -29 l6 -23
-46 21 c-44 19 -47 19 -75 3 -23 -14 -31 -27 -36 -62 -13 -87 33 -136 102
-107 45 19 53 19 53 -2 0 -31 14 -3 50 105 35 102 38 107 65 107 27 0 30 -4
72 -129 24 -71 42 -131 39 -133 -12 -12 -49 12 -58 38 -9 26 -14 29 -53 29
-41 0 -45 -2 -56 -35 -13 -36 -35 -45 -57 -23 -10 10 -17 10 -32 0 -11 -6 -36
-12 -55 -12 -98 0 -147 87 -114 203 8 31 18 42 52 58 49 22 63 23 106 8z
m1186 -3 c43 -18 65 -61 65 -128 0 -75 -8 -95 -45 -118 -48 -29 -103 -26 -145
8 -30 26 -34 35 -38 89 -5 75 17 129 62 149 40 17 59 17 101 0z m155 -107 l0
-109 60 0 c57 0 60 -1 60 -25 0 -24 -2 -25 -62 -25 -111 0 -108 -2 -108 109 0
134 7 170 31 164 17 -5 19 -16 19 -114z m-895 86 c30 -29 31 -44 5 -96 l-21
-40 41 -48 c22 -27 40 -52 40 -55 0 -3 -12 -6 -28 -6 -21 0 -37 12 -71 55 -48
60 -61 67 -61 31 0 -50 -12 -87 -28 -84 -23 4 -30 52 -24 167 l5 101 59 0 c49
0 63 -4 83 -25z m257 -12 c26 -26 32 -41 35 -85 7 -93 -33 -135 -140 -145
l-67 -6 0 138 0 137 70 -4 c63 -3 74 -7 102 -35z m128 -13 l0 -50 50 0 50 0 0
50 c0 47 2 50 25 50 l25 0 0 -130 0 -130 -25 0 c-24 0 -25 3 -25 60 l0 60 -50
0 -50 0 0 -60 c0 -52 -3 -60 -19 -60 -23 0 -31 40 -31 168 0 92 0 92 25 92 23
0 25 -3 25 -50z m831 13 c53 -60 51 -133 -6 -190 -31 -31 -37 -33 -104 -33
l-71 0 0 131 0 131 76 -4 c71 -3 78 -6 105 -35z m249 17 c0 -18 -7 -20 -60
-20 l-60 0 0 -30 c0 -30 1 -30 55 -30 48 0 55 -2 55 -20 0 -18 -7 -20 -55 -20
l-55 0 0 -40 0 -40 60 0 c53 0 60 -2 60 -20 0 -18 -7 -20 -85 -20 l-85 0 0
130 0 130 85 0 c78 0 85 -2 85 -20z m184 -1 c32 -25 35 -69 5 -110 l-20 -29
42 -50 c23 -28 39 -53 36 -56 -13 -13 -65 19 -101 62 -20 24 -41 44 -46 44 -6
0 -10 -22 -10 -50 0 -47 -2 -50 -25 -50 l-25 0 0 130 0 130 59 0 c44 0 65 -5
85 -21z"/>
<path d="M3480 3850 c0 -39 1 -40 35 -40 30 0 55 19 55 44 0 15 -35 36 -61 36
-27 0 -29 -2 -29 -40z"/>
<path d="M3480 3680 l0 -50 36 0 c52 0 74 15 74 51 0 33 -27 49 -81 49 -28 0
-29 -1 -29 -50z"/>
<path d="M3848 3683 c-12 -3 -18 -14 -18 -33 0 -34 24 -45 64 -31 20 8 26 17
26 41 0 26 -3 30 -27 29 -16 -1 -36 -3 -45 -6z"/>
<path d="M5486 3689 c-52 -8 -73 -43 -41 -69 17 -14 74 -4 81 15 3 7 4 24 2
37 -3 21 -6 23 -42 17z"/>
<path d="M6316 3788 c-9 -12 -16 -26 -16 -30 0 -5 27 -8 60 -8 l61 0 -16 30
c-20 38 -66 42 -89 8z"/>
<path d="M1465 2869 c-4 -6 -5 -12 -2 -15 2 -3 7 2 10 11 7 17 1 20 -8 4z"/>
<path d="M1460 2801 c0 -6 4 -13 10 -16 6 -3 7 1 4 9 -7 18 -14 21 -14 7z"/>
<path d="M2520 1765 l0 -35 65 0 65 0 0 35 0 35 -65 0 -65 0 0 -35z"/>
<path d="M3150 1935 c0 -48 2 -55 20 -55 16 0 20 7 20 33 0 17 3 42 6 55 5 19
2 22 -20 22 -25 0 -26 -2 -26 -55z"/>
<path d="M3100 1785 l0 -55 70 0 70 0 0 55 0 55 -70 0 -70 0 0 -55z"/>
<path d="M3690 1955 l0 -35 64 0 c58 0 64 2 70 23 12 45 9 47 -64 47 l-70 0 0
-35z"/>
<path d="M4024 1974 c3 -9 6 -33 6 -55 0 -32 3 -39 20 -39 18 0 20 7 20 55 0
53 -1 55 -26 55 -20 0 -25 -4 -20 -16z"/>
<path d="M3985 1806 c-12 -63 -1 -76 66 -76 l59 0 0 55 0 55 -60 0 -59 0 -6
-34z"/>
<path d="M4570 1770 l0 -40 70 0 70 0 0 40 0 40 -70 0 -70 0 0 -40z"/>
<path d="M1167 1480 c-16 -22 -16 -25 -1 -28 21 -5 26 2 22 30 l-3 23 -18 -25z"/>
<path d="M3272 1398 c4 -40 25 -48 34 -13 4 18 2 30 -7 36 -24 15 -30 10 -27
-23z"/>
<path d="M2660 1230 c0 -34 3 -41 18 -38 26 5 28 54 3 68 -20 10 -21 8 -21
-30z"/>
<path d="M3760 1225 c0 -24 3 -25 55 -25 52 0 55 1 55 25 0 24 -3 25 -55 25
-52 0 -55 -1 -55 -25z"/>
<path d="M3990 1225 c0 -24 3 -25 55 -25 52 0 55 1 55 25 0 24 -3 25 -55 25
-52 0 -55 -1 -55 -25z"/>
<path d="M2560 1120 c0 -5 5 -10 10 -10 6 0 10 5 10 10 0 6 -4 10 -10 10 -5 0
-10 -4 -10 -10z"/>
<path d="M1027 624 c-3 -10 -8 -29 -12 -41 -5 -20 -3 -23 20 -23 23 0 25 3 19
28 -11 45 -21 58 -27 36z"/>
<path d="M1966 648 c-22 -31 -20 -107 3 -137 25 -33 68 -31 99 5 21 24 23 34
18 73 -3 24 -14 53 -23 63 -23 26 -78 24 -97 -4z"/>
<path d="M1220 654 c0 -46 12 -64 40 -64 24 0 30 5 35 31 8 37 7 38 -39 46
-31 5 -36 3 -36 -13z"/>
<path d="M1460 576 l0 -95 30 9 c16 5 44 18 61 31 28 19 30 25 24 58 -9 50
-22 70 -51 81 -61 23 -64 19 -64 -84z"/>
<path d="M2410 580 l0 -90 35 0 c67 0 104 67 74 133 -13 28 -48 47 -84 47 -25
0 -25 -1 -25 -90z"/>
<path d="M2880 630 c0 -35 3 -40 23 -40 29 0 47 18 47 46 0 22 -17 34 -51 34
-16 0 -19 -7 -19 -40z"/>
</g>
</svg>
