<?xml version="1.0" standalone="no"?>
<!DOCTYPE svg PUBLIC "-//W3C//DTD SVG 20010904//EN"
 "http://www.w3.org/TR/2001/REC-SVG-20010904/DTD/svg10.dtd">
<svg version="1.0" xmlns="http://www.w3.org/2000/svg"
 width="225.000000pt" height="225.000000pt" viewBox="0 0 225.000000 225.000000"
 preserveAspectRatio="xMidYMid meet">

<g transform="translate(0.000000,225.000000) scale(0.100000,-0.100000)"
fill="#000000" stroke="none">
<path d="M952 2136 c-115 -22 -210 -54 -306 -104 -559 -288 -741 -991 -392
-1516 140 -210 359 -365 611 -433 89 -24 118 -27 260 -26 140 0 172 3 257 26
195 52 355 145 493 288 133 138 207 265 261 446 37 126 45 355 16 493 -41 197
-129 365 -265 507 -205 214 -442 320 -732 329 -85 2 -155 -1 -203 -10z m393
-195 c240 -63 446 -233 556 -456 66 -134 81 -195 86 -353 7 -172 -16 -280 -89
-423 -114 -223 -312 -384 -554 -451 -112 -31 -324 -31 -439 1 -104 28 -243 98
-325 164 -178 144 -299 368 -318 587 -19 231 38 439 171 616 132 175 341 299
562 335 83 13 262 3 350 -20z"/>
<path d="M1375 1464 c-81 -20 -153 -70 -185 -125 -18 -34 -22 -52 -18 -109 6
-115 59 -162 231 -208 110 -30 147 -51 147 -84 0 -50 -45 -78 -125 -78 -56 0
-160 33 -207 65 -20 14 -42 25 -47 25 -7 0 -11 -32 -11 -85 l0 -84 68 -22 c95
-30 240 -37 317 -14 118 34 177 99 183 201 5 79 -1 104 -34 144 -35 41 -84 65
-190 91 -112 28 -142 43 -150 75 -5 20 -1 32 19 51 49 49 180 41 272 -18 25
-16 50 -29 56 -29 6 0 9 32 7 83 l-3 82 -55 18 c-54 19 -232 32 -275 21z"/>
<path d="M514 1447 c-2 -7 -3 -168 -2 -358 l3 -344 88 -3 c78 -2 87 -1 88 15
1 10 0 61 0 113 -1 94 10 139 36 147 6 2 54 -59 105 -136 l93 -141 108 0 c59
0 107 2 107 4 0 3 -59 89 -130 191 -130 185 -131 187 -115 212 9 14 63 84 119
157 56 72 105 137 110 144 5 9 -16 12 -96 12 l-103 0 -108 -150 c-59 -83 -112
-150 -116 -150 -5 0 -9 66 -9 148 l-1 147 -86 3 c-64 2 -87 -1 -91 -11z"/>
</g>
</svg>
